<?xml version="1.0" encoding="UTF-8" standalone="no"?>
<!DOCTYPE svg PUBLIC "-//W3C//DTD SVG 1.1//EN"
 "http://www.w3.org/Graphics/SVG/1.1/DTD/svg11.dtd">
<!-- Generated by graphviz version 2.40.1 (20161225.0304)
 -->
<!-- Title: dependencies Pages: 1 -->
<svg width="1183pt" height="290pt"
 viewBox="0.00 0.00 1183.00 290.00" xmlns="http://www.w3.org/2000/svg" xmlns:xlink="http://www.w3.org/1999/xlink">
<g id="graph0" class="graph" transform="scale(1 1) rotate(0) translate(4 286)">
<title>dependencies</title>
<polygon fill="#ffffff" stroke="transparent" points="-4,4 -4,-286 1179,-286 1179,4 -4,4"/>
<text text-anchor="start" x="566.5091" y="-42.4" font-family="sans-serif" font-weight="bold" font-size="14.00" fill="#000000">Legend</text>
<polygon fill="#ffffb3" stroke="transparent" points="353.5,-10 353.5,-30 373.5,-30 373.5,-10 353.5,-10"/>
<text text-anchor="start" x="377.129" y="-15.4" font-family="sans-serif" font-size="14.00" fill="#000000"> &#160;Declarations</text>
<polygon fill="#8dd3c7" stroke="transparent" points="466.5,-10 466.5,-30 486.5,-30 486.5,-10 466.5,-10"/>
<text text-anchor="start" x="490.2251" y="-15.4" font-family="sans-serif" font-size="14.00" fill="#000000"> &#160;Module</text>
<polygon fill="#80b1d3" stroke="transparent" points="552.5,-10 552.5,-30 572.5,-30 572.5,-10 552.5,-10"/>
<text text-anchor="start" x="576.2812" y="-15.4" font-family="sans-serif" font-size="14.00" fill="#000000"> &#160;Bootstrap</text>
<polygon fill="#fdb462" stroke="transparent" points="649.5,-10 649.5,-30 669.5,-30 669.5,-10 649.5,-10"/>
<text text-anchor="start" x="673.1732" y="-15.4" font-family="sans-serif" font-size="14.00" fill="#000000"> &#160;Providers</text>
<polygon fill="#fb8072" stroke="transparent" points="745.5,-10 745.5,-30 765.5,-30 765.5,-10 745.5,-10"/>
<text text-anchor="start" x="769.2258" y="-15.4" font-family="sans-serif" font-size="14.00" fill="#000000"> &#160;Exports</text>
<g id="clust1" class="cluster">
<title>cluster_AppModule</title>
<polygon fill="none" stroke="#000000" stroke-dasharray="1,5" points="8,-70 8,-274 312,-274 312,-70 8,-70"/>
</g>
<g id="clust2" class="cluster">
<title>cluster_AppModule_declarations</title>
<polygon fill="none" stroke="#000000" points="16,-78 16,-130 138,-130 138,-78 16,-78"/>
</g>
<g id="clust4" class="cluster">
<title>cluster_AppModule_imports</title>
<polygon fill="none" stroke="#000000" points="146,-78 146,-130 304,-130 304,-78 146,-78"/>
</g>
<g id="clust6" class="cluster">
<title>cluster_AppModule_bootstrap</title>
<polygon fill="none" stroke="#000000" points="89,-214 89,-266 213,-266 213,-214 89,-214"/>
</g>
<g id="clust8" class="cluster">
<title>cluster_NgCdkTooltipModule</title>
<polygon fill="none" stroke="#000000" stroke-dasharray="1,5" points="320,-138 320,-206 1167,-206 1167,-138 320,-138"/>
</g>
<g id="clust9" class="cluster">
<title>cluster_NgCdkTooltipModule_declarations</title>
<polygon fill="none" stroke="#000000" points="751,-146 751,-198 1159,-198 1159,-146 751,-146"/>
</g>
<g id="clust13" class="cluster">
<title>cluster_NgCdkTooltipModule_exports</title>
<polygon fill="none" stroke="#000000" points="328,-146 328,-198 743,-198 743,-146 328,-146"/>
</g>
<!-- AppComponent -->
<g id="node1" class="node">
<title>AppComponent</title>
<polygon fill="#ffffb3" stroke="#000000" points="129.9399,-122 24.0601,-122 24.0601,-86 129.9399,-86 129.9399,-122"/>
<text text-anchor="middle" x="77" y="-99.8" font-family="Times,serif" font-size="14.00" fill="#000000">AppComponent</text>
</g>
<!-- AppModule -->
<g id="node2" class="node">
<title>AppModule</title>
<polygon fill="#8dd3c7" stroke="#000000" points="192.6571,-190 189.6571,-194 168.6571,-194 165.6571,-190 109.3429,-190 109.3429,-154 192.6571,-154 192.6571,-190"/>
<text text-anchor="middle" x="151" y="-167.8" font-family="Times,serif" font-size="14.00" fill="#000000">AppModule</text>
</g>
<!-- AppComponent&#45;&gt;AppModule -->
<g id="edge1" class="edge">
<title>AppComponent&#45;&gt;AppModule</title>
<path fill="none" stroke="#000000" d="M119.4457,-122.2228C119.4457,-122.2228 119.4457,-143.7269 119.4457,-143.7269"/>
<polygon fill="#000000" stroke="#000000" points="115.9457,-143.7269 119.4457,-153.7269 122.9457,-143.727 115.9457,-143.7269"/>
</g>
<!-- AppComponent  -->
<g id="node4" class="node">
<title>AppComponent </title>
<polygon fill="#80b1d3" stroke="#000000" points="205.439,-258 96.561,-258 96.561,-222 205.439,-222 205.439,-258"/>
<text text-anchor="middle" x="151" y="-235.8" font-family="Times,serif" font-size="14.00" fill="#000000">AppComponent </text>
</g>
<!-- AppModule&#45;&gt;AppComponent  -->
<g id="edge3" class="edge">
<title>AppModule&#45;&gt;AppComponent </title>
<path fill="none" stroke="#000000" stroke-dasharray="1,5" d="M151,-190.2228C151,-190.2228 151,-211.7269 151,-211.7269"/>
<polygon fill="#000000" stroke="#000000" points="147.5001,-211.7269 151,-221.7269 154.5001,-211.727 147.5001,-211.7269"/>
</g>
<!-- NgCdkTooltipModule -->
<g id="node3" class="node">
<title>NgCdkTooltipModule</title>
<polygon fill="#8dd3c7" stroke="#000000" points="295.7176,-122 292.7176,-126 271.7176,-126 268.7176,-122 154.2824,-122 154.2824,-86 295.7176,-86 295.7176,-122"/>
<text text-anchor="middle" x="225" y="-99.8" font-family="Times,serif" font-size="14.00" fill="#000000">NgCdkTooltipModule</text>
</g>
<!-- NgCdkTooltipModule&#45;&gt;AppModule -->
<g id="edge2" class="edge">
<title>NgCdkTooltipModule&#45;&gt;AppModule</title>
<path fill="none" stroke="#000000" d="M173.6098,-122.2228C173.6098,-122.2228 173.6098,-143.7269 173.6098,-143.7269"/>
<polygon fill="#000000" stroke="#000000" points="170.1098,-143.7269 173.6098,-153.7269 177.1098,-143.727 170.1098,-143.7269"/>
</g>
<!-- NgCdkTooltipComponent  -->
<g id="node7" class="node">
<title>NgCdkTooltipComponent </title>
<polygon fill="#fb8072" stroke="#000000" points="735.5008,-190 568.4992,-190 568.4992,-154 735.5008,-154 735.5008,-190"/>
<text text-anchor="middle" x="652" y="-167.8" font-family="Times,serif" font-size="14.00" fill="#000000">NgCdkTooltipComponent </text>
</g>
<!-- NgCdkTooltipModule&#45;&gt;NgCdkTooltipComponent  -->
<g id="edge6" class="edge">
<title>NgCdkTooltipModule&#45;&gt;NgCdkTooltipComponent </title>
<path fill="none" stroke="#000000" stroke-dasharray="5,2" d="M295.9897,-113C417.4089,-113 652,-113 652,-113 652,-113 652,-143.9775 652,-143.9775"/>
<polygon fill="#000000" stroke="#000000" points="648.5001,-143.9774 652,-153.9775 655.5001,-143.9775 648.5001,-143.9774"/>
</g>
<!-- NgCdkTooltipTriggerForDirective  -->
<g id="node8" class="node">
<title>NgCdkTooltipTriggerForDirective </title>
<polygon fill="#fb8072" stroke="#000000" points="550.1728,-190 335.8272,-190 335.8272,-154 550.1728,-154 550.1728,-190"/>
<text text-anchor="middle" x="443" y="-167.8" font-family="Times,serif" font-size="14.00" fill="#000000">NgCdkTooltipTriggerForDirective </text>
</g>
<!-- NgCdkTooltipModule&#45;&gt;NgCdkTooltipTriggerForDirective  -->
<g id="edge7" class="edge">
<title>NgCdkTooltipModule&#45;&gt;NgCdkTooltipTriggerForDirective </title>
<path fill="none" stroke="#000000" stroke-dasharray="5,2" d="M250.5391,-122.2228C250.5391,-142.3652 250.5391,-172 250.5391,-172 250.5391,-172 325.7957,-172 325.7957,-172"/>
<polygon fill="#000000" stroke="#000000" points="325.7958,-175.5001 335.7957,-172 325.7957,-168.5001 325.7958,-175.5001"/>
</g>
<!-- NgCdkTooltipComponent -->
<g id="node5" class="node">
<title>NgCdkTooltipComponent</title>
<polygon fill="#ffffb3" stroke="#000000" points="1151.5,-190 988.5,-190 988.5,-154 1151.5,-154 1151.5,-190"/>
<text text-anchor="middle" x="1070" y="-167.8" font-family="Times,serif" font-size="14.00" fill="#000000">NgCdkTooltipComponent</text>
</g>
<!-- NgCdkTooltipComponent&#45;&gt;NgCdkTooltipModule -->
<g id="edge4" class="edge">
<title>NgCdkTooltipComponent&#45;&gt;NgCdkTooltipModule</title>
<path fill="none" stroke="#000000" d="M1070,-153.7521C1070,-130.9821 1070,-95 1070,-95 1070,-95 305.953,-95 305.953,-95"/>
<polygon fill="#000000" stroke="#000000" points="305.953,-91.5001 295.953,-95 305.953,-98.5001 305.953,-91.5001"/>
</g>
<!-- NgCdkTooltipTriggerForDirective -->
<g id="node6" class="node">
<title>NgCdkTooltipTriggerForDirective</title>
<polygon fill="#ffffb3" stroke="#000000" points="970.6727,-190 759.3273,-190 759.3273,-154 970.6727,-154 970.6727,-190"/>
<text text-anchor="middle" x="865" y="-167.8" font-family="Times,serif" font-size="14.00" fill="#000000">NgCdkTooltipTriggerForDirective</text>
</g>
<!-- NgCdkTooltipTriggerForDirective&#45;&gt;NgCdkTooltipModule -->
<g id="edge5" class="edge">
<title>NgCdkTooltipTriggerForDirective&#45;&gt;NgCdkTooltipModule</title>
<path fill="none" stroke="#000000" d="M865,-153.7772C865,-133.6348 865,-104 865,-104 865,-104 305.629,-104 305.629,-104"/>
<polygon fill="#000000" stroke="#000000" points="305.629,-100.5001 295.629,-104 305.6289,-107.5001 305.629,-100.5001"/>
</g>
</g>
</svg>
