<?xml version="1.0" encoding="UTF-8" standalone="no"?>
<!DOCTYPE svg PUBLIC "-//W3C//DTD SVG 1.1//EN"
 "http://www.w3.org/Graphics/SVG/1.1/DTD/svg11.dtd">
<!-- Generated by graphviz version 2.40.1 (20161225.0304)
 -->
<!-- Title: dependencies Pages: 1 -->
<svg width="504pt" height="284pt"
 viewBox="0.00 0.00 504.00 284.00" xmlns="http://www.w3.org/2000/svg" xmlns:xlink="http://www.w3.org/1999/xlink">
<g id="graph0" class="graph" transform="scale(1 1) rotate(0) translate(4 280)">
<title>dependencies</title>
<polygon fill="#ffffff" stroke="transparent" points="-4,4 -4,-280 500,-280 500,4 -4,4"/>
<text text-anchor="start" x="227.0091" y="-42.4" font-family="sans-serif" font-weight="bold" font-size="14.00" fill="#000000">Legend</text>
<polygon fill="#ffffb3" stroke="transparent" points="14,-10 14,-30 34,-30 34,-10 14,-10"/>
<text text-anchor="start" x="37.629" y="-15.4" font-family="sans-serif" font-size="14.00" fill="#000000"> &#160;Declarations</text>
<polygon fill="#8dd3c7" stroke="transparent" points="127,-10 127,-30 147,-30 147,-10 127,-10"/>
<text text-anchor="start" x="150.7251" y="-15.4" font-family="sans-serif" font-size="14.00" fill="#000000"> &#160;Module</text>
<polygon fill="#80b1d3" stroke="transparent" points="213,-10 213,-30 233,-30 233,-10 213,-10"/>
<text text-anchor="start" x="236.7812" y="-15.4" font-family="sans-serif" font-size="14.00" fill="#000000"> &#160;Bootstrap</text>
<polygon fill="#fdb462" stroke="transparent" points="310,-10 310,-30 330,-30 330,-10 310,-10"/>
<text text-anchor="start" x="333.6732" y="-15.4" font-family="sans-serif" font-size="14.00" fill="#000000"> &#160;Providers</text>
<polygon fill="#fb8072" stroke="transparent" points="406,-10 406,-30 426,-30 426,-10 406,-10"/>
<text text-anchor="start" x="429.7258" y="-15.4" font-family="sans-serif" font-size="14.00" fill="#000000"> &#160;Exports</text>
<g id="clust1" class="cluster">
<title>cluster_NgCdkTooltipModule</title>
<polygon fill="none" stroke="#000000" stroke-dasharray="1,5" points="32.5,-70 32.5,-268 463.5,-268 463.5,-70 32.5,-70"/>
</g>
<g id="clust2" class="cluster">
<title>cluster_NgCdkTooltipModule_declarations</title>
<polygon fill="none" stroke="#000000" points="44.5,-78 44.5,-130 452.5,-130 452.5,-78 44.5,-78"/>
</g>
<g id="clust6" class="cluster">
<title>cluster_NgCdkTooltipModule_exports</title>
<polygon fill="none" stroke="#000000" points="40.5,-208 40.5,-260 455.5,-260 455.5,-208 40.5,-208"/>
</g>
<!-- NgCdkTooltipComponent -->
<g id="node1" class="node">
<title>NgCdkTooltipComponent</title>
<polygon fill="#ffffb3" stroke="#000000" points="445,-122 282,-122 282,-86 445,-86 445,-122"/>
<text text-anchor="middle" x="363.5" y="-99.8" font-family="Times,serif" font-size="14.00" fill="#000000">NgCdkTooltipComponent</text>
</g>
<!-- NgCdkTooltipModule -->
<g id="node3" class="node">
<title>NgCdkTooltipModule</title>
<polygon fill="#8dd3c7" stroke="#000000" points="229.2176,-187 226.2176,-191 205.2176,-191 202.2176,-187 87.7824,-187 87.7824,-151 229.2176,-151 229.2176,-187"/>
<text text-anchor="middle" x="158.5" y="-164.8" font-family="Times,serif" font-size="14.00" fill="#000000">NgCdkTooltipModule</text>
</g>
<!-- NgCdkTooltipComponent&#45;&gt;NgCdkTooltipModule -->
<g id="edge1" class="edge">
<title>NgCdkTooltipComponent&#45;&gt;NgCdkTooltipModule</title>
<path fill="none" stroke="#000000" d="M390.6667,-122.0225C390.6667,-139.3734 390.6667,-163 390.6667,-163 390.6667,-163 239.4192,-163 239.4192,-163"/>
<polygon fill="#000000" stroke="#000000" points="239.4192,-159.5001 229.4192,-163 239.4191,-166.5001 239.4192,-159.5001"/>
</g>
<!-- NgCdkTooltipTriggerForDirective -->
<g id="node2" class="node">
<title>NgCdkTooltipTriggerForDirective</title>
<polygon fill="#ffffb3" stroke="#000000" points="264.1727,-122 52.8273,-122 52.8273,-86 264.1727,-86 264.1727,-122"/>
<text text-anchor="middle" x="158.5" y="-99.8" font-family="Times,serif" font-size="14.00" fill="#000000">NgCdkTooltipTriggerForDirective</text>
</g>
<!-- NgCdkTooltipTriggerForDirective&#45;&gt;NgCdkTooltipModule -->
<g id="edge2" class="edge">
<title>NgCdkTooltipTriggerForDirective&#45;&gt;NgCdkTooltipModule</title>
<path fill="none" stroke="#000000" d="M158.5,-122.1061C158.5,-122.1061 158.5,-140.991 158.5,-140.991"/>
<polygon fill="#000000" stroke="#000000" points="155.0001,-140.9909 158.5,-150.991 162.0001,-140.991 155.0001,-140.9909"/>
</g>
<!-- NgCdkTooltipComponent  -->
<g id="node4" class="node">
<title>NgCdkTooltipComponent </title>
<polygon fill="#fb8072" stroke="#000000" points="448.0008,-252 280.9992,-252 280.9992,-216 448.0008,-216 448.0008,-252"/>
<text text-anchor="middle" x="364.5" y="-229.8" font-family="Times,serif" font-size="14.00" fill="#000000">NgCdkTooltipComponent </text>
</g>
<!-- NgCdkTooltipModule&#45;&gt;NgCdkTooltipComponent  -->
<g id="edge3" class="edge">
<title>NgCdkTooltipModule&#45;&gt;NgCdkTooltipComponent </title>
<path fill="none" stroke="#000000" stroke-dasharray="5,2" d="M229.2954,-175C278.8874,-175 336.3333,-175 336.3333,-175 336.3333,-175 336.3333,-205.9775 336.3333,-205.9775"/>
<polygon fill="#000000" stroke="#000000" points="332.8334,-205.9774 336.3333,-215.9775 339.8334,-205.9775 332.8334,-205.9774"/>
</g>
<!-- NgCdkTooltipTriggerForDirective  -->
<g id="node5" class="node">
<title>NgCdkTooltipTriggerForDirective </title>
<polygon fill="#fb8072" stroke="#000000" points="262.6728,-252 48.3272,-252 48.3272,-216 262.6728,-216 262.6728,-252"/>
<text text-anchor="middle" x="155.5" y="-229.8" font-family="Times,serif" font-size="14.00" fill="#000000">NgCdkTooltipTriggerForDirective </text>
</g>
<!-- NgCdkTooltipModule&#45;&gt;NgCdkTooltipTriggerForDirective  -->
<g id="edge4" class="edge">
<title>NgCdkTooltipModule&#45;&gt;NgCdkTooltipTriggerForDirective </title>
<path fill="none" stroke="#000000" stroke-dasharray="5,2" d="M158.5,-187.1061C158.5,-187.1061 158.5,-205.991 158.5,-205.991"/>
<polygon fill="#000000" stroke="#000000" points="155.0001,-205.9909 158.5,-215.991 162.0001,-205.991 155.0001,-205.9909"/>
</g>
</g>
</svg>
